<?xml version="1.0" encoding="UTF-8"?>
<svg version="1.1" xmlns="http://www.w3.org/2000/svg" width="229" height="207">
<path d="M0 0 C1.70760564 0.0011974 3.41521195 0.00164378 5.12281799 0.00138855 C8.67510192 0.00293852 12.22728296 0.01111057 15.77954102 0.0246582 C20.2816236 0.04163224 24.78359376 0.04547179 29.28570461 0.04471302 C32.80435718 0.04498792 36.32298628 0.05051996 39.84163094 0.05771446 C41.49943935 0.06084606 43.15725036 0.06285526 44.81506157 0.06360817 C53.22891142 0.07161738 61.6241951 0.19296422 70.02758789 0.63549805 C70.71739715 0.6683254 71.4072064 0.70115274 72.11791897 0.73497486 C84.79619588 1.49059439 95.32159555 7.92949641 103.96484375 16.96875 C111.51513447 26.51376818 113.06212247 38.46610668 113.02856445 50.26318359 C113.03367538 51.21097183 113.03878632 52.15876007 113.04405212 53.13526917 C113.0578388 56.23738089 113.05699963 59.33926771 113.0546875 62.44140625 C113.05858039 64.61797161 113.06291628 66.79453621 113.06767273 68.97109985 C113.07511146 73.52177397 113.0748607 78.07237047 113.06958008 82.62304688 C113.06378835 88.42849609 113.080721 94.23362597 113.10392475 100.03902245 C113.11872077 104.53113636 113.11952582 109.02317441 113.11641502 113.51530838 C113.11692528 115.65453346 113.12210684 117.79376312 113.13222694 119.93296432 C113.20289424 136.95790696 112.67145285 151.26503044 100.68359375 164.51953125 C86.72635205 177.87646148 68.49143652 177.55055614 50.3671875 177.4609375 C48.73260027 177.45973981 47.09801233 177.45929378 45.46342468 177.45954895 C42.05898644 177.45799799 38.6546554 177.44982133 35.25024414 177.4362793 C30.94843431 177.4193578 26.64674105 177.41556216 22.34490204 177.41608047 C-7.44677881 177.41532283 -7.44677881 177.41532283 -20.2265625 176.8203125 C-21.35405159 176.77042427 -21.35405159 176.77042427 -22.50431824 176.7195282 C-35.16380725 175.99544786 -45.43972368 170.6126685 -54.05859375 161.41796875 C-65.51977981 147.22664168 -64.55509547 129.60934751 -64.4765625 112.2578125 C-64.47536555 110.47815484 -64.47491862 108.69849654 -64.47517395 106.9188385 C-64.47362353 103.21692864 -64.46544634 99.51511746 -64.4519043 95.81323242 C-64.4349045 91.11141543 -64.43109136 86.40970604 -64.43184948 81.7078619 C-64.43157522 78.04174304 -64.42605359 74.37564684 -64.41884804 70.7095356 C-64.41570746 68.97750583 -64.41370501 67.24547354 -64.41295433 65.51344109 C-64.37738326 26.36479754 -64.37738326 26.36479754 -51.46875 12.29296875 C-37.47494499 -0.98540656 -18.05252045 -0.08537853 0 0 Z " fill="#302F30" transform="translate(91.24609375,12.76953125)"/>
<path d="M0 0 C1.08166443 -0.00074776 1.08166443 -0.00074776 2.18518066 -0.00151062 C3.70828002 0.00082763 5.23138339 0.01054165 6.75439453 0.02709961 C9.08531253 0.05069584 11.41508663 0.04765877 13.74609375 0.04101562 C15.22656932 0.04659254 16.70704007 0.05370251 18.1875 0.0625 C18.8844397 0.06158859 19.58137939 0.06067719 20.29943848 0.05973816 C23.94808425 0.11318049 25.47187115 0.28202868 28.59375 2.36328125 C28.88576724 4.96443681 28.9899835 7.32419277 28.95703125 9.92578125 C28.95777901 11.04641968 28.95777901 11.04641968 28.95854187 12.18969727 C28.95620023 13.77004657 28.94646631 15.35039952 28.92993164 16.93066406 C28.90634178 19.35385376 28.9093691 21.77594347 28.91601562 24.19921875 C28.91043886 25.7330795 28.90332899 27.2669356 28.89453125 28.80078125 C28.89589836 29.89144897 28.89589836 29.89144897 28.89729309 31.00415039 C28.82477983 36.13225142 28.82477983 36.13225142 26.59375 38.36328125 C24.0477893 38.56290536 21.61299064 38.64314673 19.06640625 38.62890625 C17.94932533 38.63177643 17.94932533 38.63177643 16.80967712 38.63470459 C15.23354759 38.63606639 13.65740685 38.63237028 12.08129883 38.62402344 C9.66917666 38.61333851 7.25780182 38.62391071 4.84570312 38.63671875 C3.31510252 38.63539686 1.78450238 38.63283385 0.25390625 38.62890625 C-0.46804428 38.63295471 -1.18999481 38.63700317 -1.93382263 38.64117432 C-5.64142669 38.60649611 -7.23841348 38.47517226 -10.40625 36.36328125 C-10.71095628 33.84456761 -10.82648896 31.57528693 -10.8046875 29.0546875 C-10.80755768 28.33216293 -10.81042786 27.60963837 -10.81338501 26.86521912 C-10.81542756 25.33616351 -10.80988427 23.80708188 -10.79736328 22.27807617 C-10.781334 19.93804344 -10.79719177 17.5997439 -10.81640625 15.25976562 C-10.81442339 13.77473577 -10.81057883 12.28970699 -10.8046875 10.8046875 C-10.81076019 10.10461075 -10.81683289 9.404534 -10.8230896 8.6832428 C-10.78379659 5.96576946 -10.66144319 3.8300208 -9.34423828 1.42089844 C-6.34012904 -0.21853231 -3.3341509 -0.04405932 0 0 Z " fill="#959595" transform="translate(106.40625,81.63671875)"/>
<path d="M0 0 C2.31 0.33 4.62 0.66 7 1 C7.25523438 1.90492187 7.25523438 1.90492187 7.515625 2.828125 C8.96189671 7.59774447 10.13127043 10.66488831 14 14 C14 14.66 14 15.32 14 16 C15.32 16.66 16.64 17.32 18 18 C18 18.66 18 19.32 18 20 C18.53625 20.226875 19.0725 20.45375 19.625 20.6875 C25.94962184 24.18268575 25.94962184 24.18268575 28 27 C28.8187598 30.80350166 28.64747648 34.52458501 28.5234375 38.3984375 C28.51262118 40.6744773 28.5022173 42.9505191 28.4921875 45.2265625 C28.44011629 48.80375636 28.37488798 52.38026777 28.29882812 55.95703125 C28.23588067 59.41723351 28.22139089 62.87523752 28.2109375 66.3359375 C28.17269867 67.39968597 28.13445984 68.46343445 28.09506226 69.55941772 C28.05850541 75.28783858 28.05850541 75.28783858 30.73980713 80.16656494 C32.82824637 82.04093757 32.82824637 82.04093757 35.01528931 83.5675354 C36.95302231 84.96609386 38.2290653 86.31076831 39.6875 88.1875 C41.81136472 91.07773758 41.81136472 91.07773758 44.625 92.62890625 C47.23695782 95.23656809 47.35417499 95.63227399 47.48828125 99.109375 C47.45521221 100.65700607 47.39581107 102.20425916 47.3125 103.75 C47.28994141 104.54277344 47.26738281 105.33554688 47.24414062 106.15234375 C47.18540471 108.1023762 47.09572654 110.05143312 47 112 C48.32 112.66 49.64 113.32 51 114 C51.25 116.8125 51.25 116.8125 51 120 C49.375 121.9375 49.375 121.9375 47 123 C43.32706204 122.77962372 41.63033454 122.63033454 39 120 C38.875 116.875 38.875 116.875 39 114 C40.98 113.01 40.98 113.01 43 112 C43.91281395 107.13430477 44.18726113 102.52177276 42 98 C40.09407235 96.19986204 40.09407235 96.19986204 37.73828125 94.59765625 C24.0388959 84.73231795 24.0388959 84.73231795 22.52935791 76.40313721 C21.63939964 66.70167035 22.06134961 56.92047808 22.796875 47.22363281 C23.7051661 34.87033331 23.7051661 34.87033331 18.66552734 23.95849609 C12.86361747 17.57850692 7.46239411 12.95009082 -1 11 C-3 9 -3 9 -3.3125 6.625 C-2.94914998 3.57285984 -2.01544839 2.26737944 0 0 Z " fill="#8E8E8E" transform="translate(48,52)"/>
<path d="M0 0 C3.0996593 -0.39570119 5.12198451 -0.49754211 7.875 1.0625 C9.59944167 4.03237177 9.24840147 6.64658015 9 10 C8 11 8 11 4.3125 11.125 C0.69693921 11.53030308 -0.77229274 12.37116404 -3.0625 15.1875 C-3.53429687 15.81527344 -4.00609375 16.44304687 -4.4921875 17.08984375 C-6.51013608 19.64626047 -8.87546758 21.58544013 -11.38671875 23.640625 C-11.91910156 24.08921875 -12.45148438 24.5378125 -13 25 C-13.52557495 25.42756592 -14.0511499 25.85513184 -14.59265137 26.2956543 C-16.4583419 28.55506719 -16.29320477 29.73273228 -16.13085938 32.62890625 C-16.09009277 33.56897522 -16.04932617 34.50904419 -16.00732422 35.4776001 C-15.95334473 36.49561707 -15.89936523 37.51363403 -15.84375 38.5625 C-14.62147315 76.49870052 -14.62147315 76.49870052 -21.25 85.046875 C-25.17260225 88.95154365 -29.601408 92.08001314 -34.10400391 95.27783203 C-36.75306376 97.6840216 -37.33172908 99.7382022 -37.69140625 103.23339844 C-37.68612381 105.8759369 -37.48725347 108.40272713 -37 111 C-35.68 111.66 -34.36 112.32 -33 113 C-33.75 119.75 -33.75 119.75 -36 122 C-39.10347254 122.33015665 -41.15781176 122.50531294 -43.875 120.875 C-45.4682099 118.21965017 -45.20214032 116.03210482 -45 113 C-43.02 112.01 -43.02 112.01 -41 111 C-41.33064453 109.59814453 -41.33064453 109.59814453 -41.66796875 108.16796875 C-42.38882234 103.60177292 -42.7417568 99.36863756 -41 95 C-38.90149962 92.95581897 -36.62867194 91.3735151 -34.25048828 89.66455078 C-28.16606417 85.18937671 -23.04285727 80.87424302 -21.41186523 73.25109863 C-19.30202607 57.36698784 -20.20660438 40.96070649 -21 25 C-20.01 24.67 -19.02 24.34 -18 24 C-16.353524 22.37571904 -16.353524 22.37571904 -14.75 20.375 C-12.30489923 17.4990216 -9.82680201 14.69991228 -7.1875 12 C-6.62417969 11.4225 -6.06085938 10.845 -5.48046875 10.25 C-4 9 -4 9 -2 9 C-2.04125 8.071875 -2.0825 7.14375 -2.125 6.1875 C-2 3 -2 3 0 0 Z " fill="#909090" transform="translate(177,53)"/>
<path d="M0 0 C4.34586828 -0.39507893 6.32003497 -0.45331002 10 2 C10.3125 5.5 10.3125 5.5 10 9 C9.34 9.66 8.68 10.32 8 11 C7.66686422 13.13106944 7.66686422 13.13106944 7.67773438 15.61401367 C7.64891174 17.05142159 7.64891174 17.05142159 7.61950684 18.51786804 C7.61100708 19.55740128 7.60250732 20.59693451 7.59375 21.66796875 C7.58234985 22.73614334 7.57094971 23.80431793 7.5592041 24.90486145 C7.54028338 27.17033923 7.52722791 29.4358723 7.51953125 31.70141602 C7.50017227 35.15675117 7.43817751 38.60967973 7.375 42.06445312 C7.36193443 44.26561087 7.35143564 46.46678565 7.34375 48.66796875 C7.3190564 49.69738083 7.29436279 50.72679291 7.2689209 51.78739929 C7.30663768 57.90805469 8.11249505 61.29893378 12.48245239 65.69548035 C14.362333 67.31146998 16.31652438 68.74479604 18.375 70.125 C21.27270264 72.52138907 21.93139687 73.5498579 22.5078125 77.33203125 C22.50074899 80.59184025 22.35076563 83.76028964 22 87 C23.32 87.66 24.64 88.32 26 89 C26.3125 91.8125 26.3125 91.8125 26 95 C23.8125 96.9375 23.8125 96.9375 21 98 C17.5989856 97.76271993 16.430466 97.430466 14 95 C13.875 91.875 13.875 91.875 14 89 C15.98 88.01 15.98 88.01 18 87 C18 83.37 18 79.74 18 76 C16.68 75.34 15.36 74.68 14 74 C8.21126592 70.32554384 2.98129421 66.21990386 1.36352539 59.26293945 C0.48915288 51.43651634 0.90720399 43.59873496 1.25 35.75 C1.31027399 33.34778992 1.36501257 30.94543422 1.4140625 28.54296875 C1.54548353 22.69210448 1.74554313 16.84673792 2 11 C0.68 10.67 -0.64 10.34 -2 10 C-2.25 3.375 -2.25 3.375 0 0 Z " fill="#8C8C8C" transform="translate(47,77)"/>
<path d="M0 0 C1.875 1.125 1.875 1.125 3 3 C3.1875 6.1875 3.1875 6.1875 3 9 C1.02 9.99 1.02 9.99 -1 11 C-0.96891144 11.60784332 -0.93782288 12.21568665 -0.90579224 12.84194946 C-0.59332936 19.23361496 -0.3838592 25.62308117 -0.23095703 32.02050781 C-0.16102944 34.39933501 -0.06584065 36.77757089 0.05615234 39.15429688 C1.10370125 60.10527492 1.10370125 60.10527492 -4.14355469 66.55273438 C-6.54999286 69.05065872 -9.1123008 71.15999204 -11.87060547 73.25439453 C-14.5865395 75.35697357 -14.9465336 75.81468071 -15.95751953 79.31884766 C-15.99815345 82.12258794 -15.86811582 84.33646284 -15 87 C-14.34 87.66 -13.68 88.32 -13 89 C-12.66984335 92.10347254 -12.49468706 94.15781176 -14.125 96.875 C-16.91106042 98.54663625 -18.81988862 98.46376624 -22 98 C-23.9375 96.375 -23.9375 96.375 -25 94 C-24.6875 90.75 -24.6875 90.75 -24 88 C-22.515 87.505 -22.515 87.505 -21 87 C-21.05800781 86.10796875 -21.11601562 85.2159375 -21.17578125 84.296875 C-21.24345703 82.54117188 -21.24345703 82.54117188 -21.3125 80.75 C-21.37050781 79.58984375 -21.42851562 78.4296875 -21.48828125 77.234375 C-21 74 -21 74 -18.63671875 71.765625 C-17.33154297 70.89164063 -17.33154297 70.89164063 -16 70 C-15.175 69.01 -14.35 68.02 -13.5 67 C-11 64 -11 64 -8.38085938 62.50244141 C-4.58327523 58.51092812 -5.32297824 54.26797761 -5.40625 48.9609375 C-5.40620972 47.88373444 -5.40616943 46.80653137 -5.40612793 45.69668579 C-5.41148571 43.42208006 -5.42907925 41.14747496 -5.45800781 38.87304688 C-5.4999287 35.38093915 -5.49907182 31.89075479 -5.4921875 28.3984375 C-5.50267722 26.19009069 -5.51561414 23.98175387 -5.53125 21.7734375 C-5.53155212 20.2000209 -5.53155212 20.2000209 -5.53186035 18.59481812 C-5.54777222 17.6268631 -5.56368408 16.65890808 -5.58007812 15.66162109 C-5.58849731 14.8076474 -5.5969165 13.95367371 -5.60559082 13.07382202 C-5.73574585 12.38946075 -5.86590088 11.70509949 -6 11 C-6.99 10.34 -7.98 9.68 -9 9 C-9.39964378 5.8694571 -9.52149743 3.86916239 -7.875 1.125 C-5.11909116 -0.52854531 -3.14924548 -0.39365568 0 0 Z " fill="#909090" transform="translate(183,77)"/>
<path d="M0 0 C1.125 5.625 1.125 5.625 0 9 C-2.70879335 10.35439668 -5.00933268 10.06501451 -8 10 C-8 10.66 -8 11.32 -8 12 C-8.66 12 -9.32 12 -10 12 C-10.24097412 12.5676709 -10.48194824 13.1353418 -10.73022461 13.72021484 C-12.25422183 16.45643596 -14.07778292 18.28631807 -16.31640625 20.4765625 C-17.58581055 21.72953125 -17.58581055 21.72953125 -18.88085938 23.0078125 C-19.76580078 23.87148438 -20.65074219 24.73515625 -21.5625 25.625 C-23.31597382 27.34414185 -25.06738575 29.06539013 -26.81640625 30.7890625 C-27.59443604 31.54912598 -28.37246582 32.30918945 -29.17407227 33.09228516 C-31.06086128 34.87557625 -31.06086128 34.87557625 -32 37 C-34.5033648 37.26008985 -36.92761831 37.42120408 -39.4375 37.5 C-44.7034915 37.38992942 -44.7034915 37.38992942 -49 40 C-52 39.875 -52 39.875 -55 39 C-57.21460952 36.18140607 -57.36916952 33.50711043 -57 30 C-55 28 -55 28 -52 27.8125 C-49 28 -49 28 -47 29 C-47 29.66 -47 30.32 -47 31 C-42.71 31 -38.42 31 -34 31 C-34 30.34 -34 29.68 -34 29 C-32.64453125 27.66796875 -32.64453125 27.66796875 -30.8125 26.1875 C-28.54636401 24.31349217 -26.46067943 22.46067943 -24.375 20.375 C-22 18 -22 18 -19.5 16.1875 C-15.49745669 12.6852746 -12.46785977 8.39128328 -11.4375 3.125 C-11 1 -11 1 -9.375 -0.375 C-6.06071949 -1.24717908 -3.32887611 -0.64016848 0 0 Z " fill="#898989" transform="translate(178,32)"/>
<path d="M0 0 C1.875 -0.36328125 1.875 -0.36328125 4 -0.3125 C4.70125 -0.30863281 5.4025 -0.30476563 6.125 -0.30078125 C8 0 8 0 10 2 C11.89611525 2.32912885 11.89611525 2.32912885 14.08251953 2.31884766 C15.34360031 2.34865219 15.34360031 2.34865219 16.63015747 2.37905884 C17.53853363 2.39061005 18.44690979 2.40216125 19.3828125 2.4140625 C20.31221649 2.43342865 21.24162048 2.4527948 22.19918823 2.4727478 C25.1743648 2.53263685 28.14957988 2.5789661 31.125 2.625 C33.13934 2.66317121 35.15366354 2.70222243 37.16796875 2.7421875 C42.11184575 2.838346 47.05579917 2.9223424 52 3 C52.33 2.01 52.66 1.02 53 0 C59.625 -0.25 59.625 -0.25 63 2 C63.4375 5.4375 63.4375 5.4375 63 9 C61.375 10.9375 61.375 10.9375 59 12 C55.75 12.1875 55.75 12.1875 53 12 C52.505 10.02 52.505 10.02 52 8 C46.07306763 8.06878084 40.14684724 8.15670042 34.22045898 8.26245117 C32.20393765 8.2957271 30.18732258 8.32375068 28.1706543 8.34643555 C25.273519 8.37993256 22.37724482 8.43224544 19.48046875 8.48828125 C18.57725388 8.49467117 17.674039 8.5010611 16.74345398 8.50764465 C15.4824865 8.53733589 15.4824865 8.53733589 14.19604492 8.56762695 C13.08684944 8.58428154 13.08684944 8.58428154 11.95524597 8.60127258 C9.48719141 9.10457551 8.6839346 10.18726707 7 12 C3.99480842 12.46233717 2.42360236 12.20607683 -0.3125 10.875 C-2 9 -2 9 -2.375 6 C-2 3 -2 3 0 0 Z " fill="#8B8B8B" transform="translate(85,33)"/>
<path d="M0 0 C0.66 0.33 1.32 0.66 2 1 C2.12375 2.60875 2.12375 2.60875 2.25 4.25 C3.06817241 8.34086204 3.96071434 9.22454605 7.23828125 11.61328125 C11.36381446 14.86065218 15.33300179 18.99900536 17 24 C17.99 24.33 18.98 24.66 20 25 C20 25.66 20 26.32 20 27 C21.32 27.66 22.64 28.32 24 29 C24 29.66 24 30.32 24 31 C26.31309705 30.88658363 28.62550185 30.75896193 30.9375 30.625 C32.86916016 30.52058594 32.86916016 30.52058594 34.83984375 30.4140625 C35.88269531 30.27742188 36.92554688 30.14078125 38 30 C38.33 29.34 38.66 28.68 39 28 C45.15234375 27.90234375 45.15234375 27.90234375 47 28 C48.89488952 29.89488952 48.18019112 32.57139146 48.23046875 35.08984375 C48 37 48 37 46 39 C42.5 39.25 42.5 39.25 39 39 C38.34 38.34 37.68 37.68 37 37 C35.04796791 36.99103985 33.09562644 37.02871168 31.14453125 37.08984375 C22.0022154 36.5142771 17.48972592 30.90494939 11.6875 24.5625 C10.64140976 23.47327536 9.59259527 22.38666027 8.54101562 21.30273438 C1 13.42850914 1 13.42850914 1 11 C0.28972656 10.86722656 -0.42054687 10.73445313 -1.15234375 10.59765625 C-2.07144531 10.42105469 -2.99054687 10.24445312 -3.9375 10.0625 C-4.85402344 9.88847656 -5.77054688 9.71445312 -6.71484375 9.53515625 C-9 9 -9 9 -10 8 C-10.3125 5.125 -10.3125 5.125 -10 2 C-6.92951293 -1.66096535 -4.38057166 -1.14275782 0 0 Z " fill="#8F8F8F" transform="translate(62,32)"/>
<path d="M0 0 C1.8125 1.0625 1.8125 1.0625 3 3 C3.1875 6.6875 3.1875 6.6875 3 10 C2.01 10.33 1.02 10.66 0 11 C0.10954408 14.62564187 0.2402496 18.25021431 0.375 21.875 C0.4059375 22.90753906 0.436875 23.94007813 0.46875 25.00390625 C0.50742188 25.99003906 0.54609375 26.97617188 0.5859375 27.9921875 C0.6173584 28.90339355 0.6487793 29.81459961 0.68115234 30.75341797 C0.79882511 33.19931186 0.79882511 33.19931186 3 35 C3.375 37.9375 3.375 37.9375 3 41 C1.3125 42.9375 1.3125 42.9375 -1 44 C-3.625 43.875 -3.625 43.875 -6 43 C-8.14915785 39.77626323 -8.38286803 38.73296326 -8 35 C-7.34 34.34 -6.68 33.68 -6 33 C-5.62948007 30.6754661 -5.62948007 30.6754661 -5.5859375 27.9921875 C-5.54726562 27.00605469 -5.50859375 26.01992187 -5.46875 25.00390625 C-5.4378125 23.97136719 -5.406875 22.93882812 -5.375 21.875 C-5.33632812 20.83472656 -5.29765625 19.79445312 -5.2578125 18.72265625 C-5.16335234 16.14861689 -5.07778786 13.57458845 -5 11 C-5.99 10.67 -6.98 10.34 -8 10 C-8.36272727 3.59181818 -8.36272727 3.59181818 -6.8125 1.0625 C-4.33950907 -0.38718434 -2.82115488 -0.42317323 0 0 Z " fill="#969696" transform="translate(118,131)"/>
<path d="M0 0 C25.41 0 50.82 0 77 0 C77 0.66 77 1.32 77 2 C72.19458033 2.78596358 67.6456472 3.10092373 62.77954102 3.02172852 C62.09576889 3.01212097 61.41199677 3.00251343 60.70750427 2.99261475 C58.47285643 2.95993179 56.23842343 2.91948536 54.00390625 2.87890625 C52.44450105 2.85457501 50.88508815 2.83073301 49.32566833 2.80735779 C45.24035807 2.74481551 41.15518586 2.6756659 37.07000732 2.60510254 C32.89374019 2.53414778 28.71737592 2.46949379 24.54101562 2.40429688 C16.36056945 2.27566994 8.18025843 2.14005703 0 2 C0 1.34 0 0.68 0 0 Z " fill="#554E57" transform="translate(74,13)"/>
<path d="M0 0 C0.33 0 0.66 0 1 0 C1.33 6.6 1.66 13.2 2 20 C2.33 20 2.66 20 3 20 C3.33 13.73 3.66 7.46 4 1 C4.33 1 4.66 1 5 1 C5.01981934 1.62567871 5.03963867 2.25135742 5.06005859 2.89599609 C5.15514226 5.72276519 5.26488746 8.54877815 5.375 11.375 C5.4059375 12.35984375 5.436875 13.3446875 5.46875 14.359375 C5.50742188 15.30039063 5.54609375 16.24140625 5.5859375 17.2109375 C5.6173584 18.08024902 5.6487793 18.94956055 5.68115234 19.84521484 C5.81229433 22.20961794 5.81229433 22.20961794 8 24 C8.375 26.9375 8.375 26.9375 8 30 C6.3125 31.9375 6.3125 31.9375 4 33 C1.375 32.875 1.375 32.875 -1 32 C-3.14915785 28.77626323 -3.38286803 27.73296326 -3 24 C-2.34 23.34 -1.68 22.68 -1 22 C-0.62948007 19.6754661 -0.62948007 19.6754661 -0.5859375 16.9921875 C-0.54726562 16.00605469 -0.50859375 15.01992187 -0.46875 14.00390625 C-0.4378125 12.97136719 -0.406875 11.93882812 -0.375 10.875 C-0.33632812 9.83472656 -0.29765625 8.79445312 -0.2578125 7.72265625 C-0.16335234 5.14861689 -0.07778786 2.57458845 0 0 Z " fill="#8A8A8A" transform="translate(113,142)"/>
<path d="M0 0 C0.33 0 0.66 0 1 0 C1.99859139 8.70184894 2.13197471 17.32374045 2.09765625 26.07421875 C2.09578629 27.49339243 2.09436512 28.91256677 2.09336853 30.33174133 C2.0895888 34.0289393 2.07979853 37.72609666 2.06866455 41.42327881 C2.05835154 45.21121675 2.05384993 48.99916138 2.04882812 52.78710938 C2.03817118 60.19142457 2.02115088 67.59570655 2 75 C1.01 75 0.02 75 -1 75 C-0.67 50.25 -0.34 25.5 0 0 Z " fill="#241E21" transform="translate(201,78)"/>
<path d="M0 0 C0 0.66 0 1.32 0 2 C-0.680625 2.20625 -1.36125 2.4125 -2.0625 2.625 C-5.91639375 4.42895027 -9.07787764 6.9010345 -12 10 C-12 10.66 -12 11.32 -12 12 C-13.6796875 13.5078125 -13.6796875 13.5078125 -15.875 15.125 C-16.95394531 15.93324219 -16.95394531 15.93324219 -18.0546875 16.7578125 C-20 18 -20 18 -22 18 C-22 34.5 -22 51 -22 68 C-22.66 67.67 -23.32 67.34 -24 67 C-23.67 50.5 -23.34 34 -23 17 C-22.01 16.67 -21.02 16.34 -20 16 C-19.31513275 14.67592331 -18.65129797 13.34090759 -18 12 C-16 9.75 -16 9.75 -14 8 C-13.34 8 -12.68 8 -12 8 C-11.7525 7.4225 -11.505 6.845 -11.25 6.25 C-8.33557965 1.00404337 -6.05194767 -0.55017706 0 0 Z " fill="#585858" transform="translate(183,64)"/>
<path d="M0 0 C1.125 5.625 1.125 5.625 0 9 C-2.70879335 10.35439668 -5.00933268 10.06501451 -8 10 C-8 10.66 -8 11.32 -8 12 C-8.66 12 -9.32 12 -10 12 C-10 12.66 -10 13.32 -10 14 C-10.99 14 -11.98 14 -13 14 C-12 12 -11 10 -10 8 C-10.061875 6.2675 -10.061875 6.2675 -10.125 4.5 C-10.08375 3.345 -10.0425 2.19 -10 1 C-6.1496895 -1.56687367 -4.41430237 -0.83288724 0 0 Z " fill="#949494" transform="translate(178,32)"/>
<path d="M0 0 C0.33 0 0.66 0 1 0 C1 23.43 1 46.86 1 71 C0.67 71 0.34 71 0 71 C-0.33 68.69 -0.66 66.38 -1 64 C-1.33 64 -1.66 64 -2 64 C-2.05424396 55.51152057 -1.91636582 47.05506437 -1.5625 38.57421875 C-1.51810791 37.46061478 -1.47371582 36.3470108 -1.42797852 35.19966125 C-1.28774141 31.69550495 -1.14393739 28.19150605 -1 24.6875 C-0.90340824 22.2897231 -0.80705203 19.8919367 -0.7109375 17.49414062 C-0.47667632 11.662648 -0.23949856 5.83127975 0 0 Z " fill="#221E22" transform="translate(29,80)"/>
<path d="M0 0 C0.33 0.66 0.66 1.32 1 2 C0.34 2 -0.32 2 -1 2 C-0.67 2.99 -0.34 3.98 0 5 C-4.68255854 6.37533891 -9.11280877 5.94033737 -13.9375 5.6875 C-14.83146484 5.65205078 -15.72542969 5.61660156 -16.64648438 5.58007812 C-21.13961006 5.35658932 -24.91772065 5.08801344 -29 3 C-29 2.34 -29 1.68 -29 1 C-23.79166667 1.52083333 -18.58333333 2.04166667 -13.375 2.5625 C-12.11816406 2.68818359 -12.11816406 2.68818359 -10.8359375 2.81640625 C-10.23007813 2.87699219 -9.62421875 2.93757812 -9 3 C-9 2.34 -9 1.68 -9 1 C-6.04335481 -0.4783226 -3.25770263 -0.06032783 0 0 Z " fill="#161315" transform="translate(87,184)"/>
<path d="M0 0 C1.26096748 0.00033989 1.26096748 0.00033989 2.54740906 0.00068665 C3.45062393 0.0161705 4.35383881 0.03165436 5.28442383 0.04760742 C6.21241287 0.05185226 7.14040192 0.05609711 8.09651184 0.06047058 C11.06178751 0.07726955 14.02638468 0.11492402 16.99145508 0.15307617 C19.00121089 0.16812143 21.01097735 0.18181011 23.02075195 0.1940918 C27.94874794 0.22717709 32.87623646 0.27896784 37.80395508 0.34057617 C37.80395508 1.00057617 37.80395508 1.66057617 37.80395508 2.34057617 C24.27395508 2.34057617 10.74395508 2.34057617 -3.19604492 2.34057617 C-3.52604492 3.00057617 -3.85604492 3.66057617 -4.19604492 4.34057617 C-5.18604492 4.01057617 -6.17604492 3.68057617 -7.19604492 3.34057617 C-4.88716207 0.58219595 -3.57979223 -0.03225038 0 0 Z " fill="#555555" transform="translate(99.196044921875,40.659423828125)"/>
<path d="M0 0 C12.57385099 -0.53066663 22.02717524 0.21007829 33 7 C32.01 7.33 31.02 7.66 30 8 C29.67 8.66 29.34 9.32 29 10 C28.67 9.01 28.34 8.02 28 7 C27.01 7.33 26.02 7.66 25 8 C24.67 7.01 24.34 6.02 24 5 C22.68644531 4.87882812 21.37289062 4.75765625 20.01953125 4.6328125 C18.28381613 4.46393211 16.54814108 4.29463961 14.8125 4.125 C13.51602539 4.00705078 13.51602539 4.00705078 12.19335938 3.88671875 C7.80953229 3.45001567 4.00904503 2.97547146 0 1 C0 0.67 0 0.34 0 0 Z " fill="#433C40" transform="translate(152,14)"/>
<path d="M0 0 C1.42944945 2.35438733 2.08661261 3.48032433 1.625 6.25 C1.41875 6.8275 1.2125 7.405 1 8 C0.42378906 8.09539063 -0.15242188 8.19078125 -0.74609375 8.2890625 C-3.49370832 9.15572775 -4.94182079 10.43819471 -7.0625 12.375 C-8.06990234 13.28378906 -8.06990234 13.28378906 -9.09765625 14.2109375 C-10.76426508 15.77830268 -12.39493678 17.3699358 -14 19 C-12.18749057 11.14579247 -6.5211705 4.54505823 0 0 Z " fill="#454044" transform="translate(45,21)"/>
<path d="M0 0 C0.66 0 1.32 0 2 0 C2 0.66 2 1.32 2 2 C9.56407533 2.20589721 9.56407533 2.20589721 17 1 C17 2.32 17 3.64 17 5 C10.4 5 3.8 5 -3 5 C-3 4.34 -3 3.68 -3 3 C-2.01 3 -1.02 3 0 3 C0 2.01 0 1.02 0 0 Z " fill="#191216" transform="translate(147,184)"/>
<path d="M0 0 C0.66 0.33 1.32 0.66 2 1 C0.84826645 3.46800047 -0.04783565 5.04783565 -2 7 C-4.6015625 7.1953125 -4.6015625 7.1953125 -7.625 7.125 C-9.12933594 7.09792969 -9.12933594 7.09792969 -10.6640625 7.0703125 C-11.43492187 7.04710938 -12.20578125 7.02390625 -13 7 C-12.67 6.01 -12.34 5.02 -12 4 C-10.95199219 3.81824219 -10.95199219 3.81824219 -9.8828125 3.6328125 C-8.51769531 3.38144531 -8.51769531 3.38144531 -7.125 3.125 C-5.76761719 2.88136719 -5.76761719 2.88136719 -4.3828125 2.6328125 C-1.83494012 2.16955297 -1.83494012 2.16955297 0 0 Z " fill="#949494" transform="translate(148,61)"/>
<path d="M0 0 C2.31011932 3.6773328 2.46497903 7.40114749 2.6875 11.625 C2.73455078 12.305625 2.78160156 12.98625 2.83007812 13.6875 C3.13412836 18.73174328 3.13412836 18.73174328 2 21 C1.01 20.67 0.02 20.34 -1 20 C-1.10152799 13.2314676 -1.03026944 6.69675136 0 0 Z " fill="#2B262A" transform="translate(28,54)"/>
<path d="M0 0 C-1.1858237 3.37503669 -2.27573689 5.64722731 -5 8 C-7.475 7.01 -7.475 7.01 -10 6 C-9 3 -9 3 -6.125 1.3125 C-3 0 -3 0 0 0 Z " fill="#454045" transform="translate(57,16)"/>
<path d="M0 0 C0.66 0 1.32 0 2 0 C2.66 1.98 3.32 3.96 4 6 C5.32 5.67 6.64 5.34 8 5 C9.04449911 8.13349732 8.93423645 8.98968256 8 12 C8.99 12.66 9.98 13.32 11 14 C8.8125 14 8.8125 14 6 13 C2.78685345 9.19050769 0.47059867 5.01971915 0 0 Z " fill="#3B343A" transform="translate(30,160)"/>
<path d="M0 0 C1.63001953 0.01353516 1.63001953 0.01353516 3.29296875 0.02734375 C4.12441406 0.03894531 4.95585938 0.05054688 5.8125 0.0625 C5.8125 0.7225 5.8125 1.3825 5.8125 2.0625 C4.06465171 2.42713732 2.31409498 2.7788078 0.5625 3.125 C-0.89929688 3.42083984 -0.89929688 3.42083984 -2.390625 3.72265625 C-5.055619 4.04647535 -6.67621723 3.91753199 -9.1875 3.0625 C-9.1875 2.4025 -9.1875 1.7425 -9.1875 1.0625 C-5.90230525 -0.03256492 -3.45086585 -0.03710608 0 0 Z " fill="#453F42" transform="translate(67.1875,13.9375)"/>
<path d="M0 0 C5.85272256 0.45020943 10.08220119 3.03839227 15 6 C14.01 6.33 13.02 6.66 12 7 C11.67 7.66 11.34 8.32 11 9 C10.67 8.01 10.34 7.02 10 6 C9.01 6.33 8.02 6.66 7 7 C6.773125 6.195625 6.54625 5.39125 6.3125 4.5625 C5.879375 3.716875 5.44625 2.87125 5 2 C2.45224694 1.10613836 2.45224694 1.10613836 0 1 C0 0.67 0 0.34 0 0 Z " fill="#484445" transform="translate(170,15)"/>
<path d="M0 0 C0.33 0 0.66 0 1 0 C1 3.63 1 7.26 1 11 C1.66 11 2.32 11 3 11 C1.88820837 14.33537489 0.52588702 15.63707344 -2 18 C-1.67 18.66 -1.34 19.32 -1 20 C-1.66 20.66 -2.32 21.32 -3 22 C-3.625 19.1875 -3.625 19.1875 -4 16 C-3.34 15.01 -2.68 14.02 -2 13 C-1.34 13 -0.68 13 0 13 C0 8.71 0 4.42 0 0 Z " fill="#828282" transform="translate(162,151)"/>
<path d="M0 0 C2.31 1.98 4.62 3.96 7 6 C5.68 6.99 4.36 7.98 3 9 C1.02 7.35 -0.96 5.7 -3 4 C-2.01 3.34 -1.02 2.68 0 2 C0 1.34 0 0.68 0 0 Z " fill="#8A8A8A" transform="translate(82,135)"/>
<path d="M0 0 C-0.33 3.96 -0.66 7.92 -1 12 C-1.99 11.67 -2.98 11.34 -4 11 C-4 7.7 -4 4.4 -4 1 C-2 0 -2 0 0 0 Z " fill="#969696" transform="translate(167,151)"/>
<path d="M0 0 C1.14626322 0.97866338 2.29199788 1.95794587 3.4375 2.9375 C4.07558594 3.48277344 4.71367188 4.02804688 5.37109375 4.58984375 C6.26991149 5.36795695 7.15936528 6.15936528 8 7 C10.18292774 7.23481693 12.37203174 7.41363323 14.5625 7.5625 C15.76003906 7.64628906 16.95757812 7.73007813 18.19140625 7.81640625 C19.11824219 7.87699219 20.04507813 7.93757813 21 8 C21 8.33 21 8.66 21 9 C7.21082145 10.03275401 7.21082145 10.03275401 2.625 6.1875 C1.0390625 4.60546875 1.0390625 4.60546875 0 3 C0 2.01 0 1.02 0 0 Z " fill="#575757" transform="translate(78,60)"/>
<path d="M0 0 C1.98 0 3.96 0 6 0 C6.33 0.99 6.66 1.98 7 3 C9.97 3 12.94 3 16 3 C16 3.33 16 3.66 16 4 C14.27119018 4.05449838 12.54187288 4.09301688 10.8125 4.125 C9.84957031 4.14820313 8.88664062 4.17140625 7.89453125 4.1953125 C4.87187222 3.9913544 2.73230015 3.26874632 0 2 C0 1.34 0 0.68 0 0 Z " fill="#251E21" transform="translate(58,185)"/>
<path d="M0 0 C1.2684375 0.12375 1.2684375 0.12375 2.5625 0.25 C3.2225 1.24 3.8825 2.23 4.5625 3.25 C2.9125 3.91 1.2625 4.57 -0.4375 5.25 C-1.0975 4.59 -1.7575 3.93 -2.4375 3.25 C-3.4275 3.91 -4.4175 4.57 -5.4375 5.25 C-3.04846606 0.31266319 -3.04846606 0.31266319 0 0 Z " fill="#878787" transform="translate(115.4375,130.75)"/>
<path d="M0 0 C0 3.63053243 -1.2278255 4.95750337 -3.5546875 7.63671875 C-5.49136818 9.46347972 -7.46012234 10.27432067 -10 11 C-7.58662205 6.17324411 -4.13937592 3.30015998 0 0 Z " fill="#7E7E7E" transform="translate(159,47)"/>
<path d="M0 0 C1.26706235 3.80118706 0.57172296 5.3850372 -1 9 C-1.99 9.33 -2.98 9.66 -4 10 C-4 8.35 -4 6.7 -4 5 C-3.34 5 -2.68 5 -2 5 C-1.34 3.35 -0.68 1.7 0 0 Z " fill="#272225" transform="translate(199,160)"/>
<path d="M0 0 C0 0.66 0 1.32 0 2 C-2.8125 3.125 -2.8125 3.125 -6 4 C-6.99 3.34 -7.98 2.68 -9 2 C-3.375 -1.125 -3.375 -1.125 0 0 Z " fill="#231C1F" transform="translate(179,184)"/>
<path d="M0 0 C1.32 0.33 2.64 0.66 4 1 C3.67 2.32 3.34 3.64 3 5 C1.35 5.33 -0.3 5.66 -2 6 C-2 3 -2 3 0 0 Z " fill="#1B181A" transform="translate(50,176)"/>
<path d="M0 0 C-0.598125 0.268125 -1.19625 0.53625 -1.8125 0.8125 C-5.54027009 2.83614662 -7.27817426 5.15900412 -9 9 C-9.36 3.6 -9.36 3.6 -7.875 1.125 C-5.21965017 -0.4682099 -3.03210482 -0.20214032 0 0 Z " fill="#7B7B7B" transform="translate(183,77)"/>
<path d="M0 0 C0.33 0.99 0.66 1.98 1 3 C-1.31 4.98 -3.62 6.96 -6 9 C-5.67 7.35 -5.34 5.7 -5 4 C-4.0409375 3.8453125 -4.0409375 3.8453125 -3.0625 3.6875 C-2.381875 3.460625 -1.70125 3.23375 -1 3 C-0.67 2.01 -0.34 1.02 0 0 Z " fill="#181315" transform="translate(193,170)"/>
<path d="M0 0 C0.66 0.66 1.32 1.32 2 2 C-2.455 4.97 -2.455 4.97 -7 8 C-4.95238679 2.88096696 -4.56484257 2.28242128 0 0 Z " fill="#404040" transform="translate(169,74)"/>
<path d="M0 0 C1.32 1.32 2.64 2.64 4 4 C2.68 4.99 1.36 5.98 0 7 C-0.99 5.68 -1.98 4.36 -3 3 C-2.01 2.67 -1.02 2.34 0 2 C0 1.34 0 0.68 0 0 Z " fill="#818181" transform="translate(82,135)"/>
<path d="M0 0 C-0.66 1.65 -1.32 3.3 -2 5 C-2.66 5 -3.32 5 -4 5 C-4 4.34 -4 3.68 -4 3 C-4.99 2.67 -5.98 2.34 -7 2 C-4.35261084 0.5393715 -3.10551666 0 0 0 Z " fill="#514C50" transform="translate(57,16)"/>
</svg>
